# xmcd CD database file
#
# Track frame offsets:
#	150
#	26529
#	54638
#	83574
#	117004
#	135758
#	167572
#	196525
#	222279
#	247251
#
# Disc length: 3629 seconds
#
# Revision: 1
# Processed by: cddbd v1.5PL3 Copyright (c) Steve Scherf et al.
# Submitted via: CDex 1.51
#
DISCID=780e2b0a
DTITLE=Astarius - Astarius
DYEAR=2000
DGENRE=New Age
TTITLE0=Sunrise
TTITLE1=Merkabah
TTITLE2=Ascension
TTITLE3=Nexus
TTITLE4=Babaji
TTITLE5=Brahma's Dream
TTITLE6=The Void
TTITLE7=OM
TTITLE8=Creation
TTITLE9=Shanti
EXTD=YEAR: 2000
EXTT0=
EXTT1=
EXTT2=
EXTT3=
EXTT4=
EXTT5=
EXTT6=
EXTT7=
EXTT8=
EXTT9=
PLAYORDER=
